{
	"asset":{
		"generator":"Khronos glTF Blender I/O v3.6.27",
		"version":"2.0"
	},
	"extensionsUsed":[
		"KHR_materials_transmission",
		"KHR_materials_ior",
		"KHR_materials_specular"
	],
	"scene":0,
	"scenes":[
		{
			"name":"Scene",
			"nodes":[
				0,
				1,
				2,
				3,
				4,
				5,
				6
			]
		}
	],
	"nodes":[
		{
			"mesh":0,
			"name":"zdaja 2",
			"rotation":[
				0.5199614763259888,
				-0.5199614763259888,
				-0.47920775413513184,
				0.4792077839374542
			],
			"scale":[
				6.173605918884277,
				6.173607349395752,
				6.173607349395752
			],
			"translation":[
				-6.27890157699585,
				10.074928283691406,
				11.807830810546875
			]
		},
		{
			"mesh":1,
			"name":"zdaja.001",
			"rotation":[
				0.4781174063682556,
				-0.4781173765659332,
				-0.5209642648696899,
				0.5209642648696899
			],
			"scale":[
				6.170091152191162,
				6.170091152191162,
				6.170091152191162
			],
			"translation":[
				12.334033012390137,
				10.330570220947266,
				11.807807922363281
			]
		},
		{
			"name":"zdaja.002",
			"rotation":[
				0.4999997615814209,
				-0.4999997019767761,
				-0.5000002980232239,
				0.5000002980232239
			],
			"scale":[
				6.4074015617370605,
				6.4074015617370605,
				6.4074015617370605
			],
			"translation":[
				12.334033012390137,
				10.330570220947266,
				11.807807922363281
			]
		},
		{
			"mesh":2,
			"name":"karkas.002",
			"rotation":[
				0.4781173765659332,
				-0.47811734676361084,
				-0.5209642648696899,
				0.5209642648696899
			],
			"scale":[
				6.4074015617370605,
				6.407399654388428,
				6.407399654388428
			],
			"translation":[
				12.334033012390137,
				10.330570220947266,
				11.807807922363281
			]
		},
		{
			"mesh":3,
			"name":"karkas.003",
			"rotation":[
				0.5199615359306335,
				-0.5199615359306335,
				-0.4792077839374542,
				0.4792078137397766
			],
			"scale":[
				6.4074015617370605,
				6.4082231521606445,
				6.4082231521606445
			],
			"translation":[
				-6.27890157699585,
				10.074928283691406,
				11.807830810546875
			]
		},
		{
			"mesh":4,
			"name":"Plane",
			"rotation":[
				-0.49946802854537964,
				0.49946799874305725,
				-0.5005314946174622,
				0.5005315542221069
			],
			"scale":[
				-0.12447607517242432,
				-5.011308193206787,
				-6.0190606117248535
			],
			"translation":[
				3.058607816696167,
				16.143692016601562,
				12.030828475952148
			]
		},
		{
			"mesh":5,
			"name":"Plane.001",
			"rotation":[
				-0.03192193806171417,
				-0.03192193806171417,
				-0.7063858509063721,
				0.7063859105110168
			],
			"scale":[
				0.5772256851196289,
				3.0817699432373047,
				3.0817697048187256
			],
			"translation":[
				2.792957305908203,
				10.47624397277832,
				-15.086156845092773
			]
		}
	],
	"materials":[
		{
			"doubleSided":true,
			"name":"Material.002",
			"pbrMetallicRoughness":{}
		},
		{
			"doubleSided":true,
			"extensions":{
				"KHR_materials_transmission":{
					"transmissionFactor":0.27900001406669617
				},
				"KHR_materials_ior":{
					"ior":1.4500000476837158
				}
			},
			"name":"Material.005",
			"pbrMetallicRoughness":{
				"baseColorFactor":[
					0.7991227507591248,
					0.822170078754425,
					0.2608145773410797,
					1
				],
				"roughnessFactor":0
			}
		},
		{
			"doubleSided":true,
			"extensions":{
				"KHR_materials_transmission":{
					"transmissionFactor":0.27900001406669617
				},
				"KHR_materials_specular":{
					"specularColorFactor":[
						0.4825019524863048,
						0.4807945248155796,
						0.4796291295537459
					]
				},
				"KHR_materials_ior":{
					"ior":1.4500000476837158
				}
			},
			"name":"Material.006",
			"pbrMetallicRoughness":{
				"baseColorFactor":[
					0.0021044681780040264,
					0.0014271421823650599,
					0.0009648370905779302,
					1
				],
				"metallicFactor":0.8921161890029907,
				"roughnessFactor":0
			}
		}
	],
	"meshes":[
		{
			"name":"Circle.001",
			"primitives":[
				{
					"attributes":{
						"POSITION":0,
						"NORMAL":1,
						"TEXCOORD_0":2
					},
					"indices":3,
					"material":0
				}
			]
		},
		{
			"name":"Circle.004",
			"primitives":[
				{
					"attributes":{
						"POSITION":4,
						"NORMAL":5,
						"TEXCOORD_0":6
					},
					"indices":7,
					"material":0
				}
			]
		},
		{
			"name":"Circle.002",
			"primitives":[
				{
					"attributes":{
						"POSITION":8,
						"NORMAL":9,
						"TEXCOORD_0":10
					},
					"indices":11,
					"material":1
				}
			]
		},
		{
			"name":"Circle.003",
			"primitives":[
				{
					"attributes":{
						"POSITION":12,
						"NORMAL":13,
						"TEXCOORD_0":14
					},
					"indices":15,
					"material":1
				}
			]
		},
		{
			"name":"Plane",
			"primitives":[
				{
					"attributes":{
						"POSITION":16,
						"NORMAL":17,
						"TEXCOORD_0":18
					},
					"indices":19,
					"material":1
				}
			]
		},
		{
			"name":"Plane.001",
			"primitives":[
				{
					"attributes":{
						"POSITION":20,
						"NORMAL":21,
						"TEXCOORD_0":22
					},
					"indices":23,
					"material":2
				}
			]
		}
	],
	"accessors":[
		{
			"bufferView":0,
			"componentType":5126,
			"count":348,
			"max":[
				0.931840181350708,
				1.049592768254115e-08,
				1.117356538772583
			],
			"min":[
				-0.9733003377914429,
				-0.04361691325902939,
				-1.1076005697250366
			],
			"type":"VEC3"
		},
		{
			"bufferView":1,
			"componentType":5126,
			"count":348,
			"type":"VEC3"
		},
		{
			"bufferView":2,
			"componentType":5126,
			"count":348,
			"type":"VEC2"
		},
		{
			"bufferView":3,
			"componentType":5123,
			"count":684,
			"type":"SCALAR"
		},
		{
			"bufferView":4,
			"componentType":5126,
			"count":318,
			"max":[
				0.9502257108688354,
				6.539709218600365e-09,
				1.1131415367126465
			],
			"min":[
				-0.9193910360336304,
				-0.044727668166160583,
				-1.0729689598083496
			],
			"type":"VEC3"
		},
		{
			"bufferView":5,
			"componentType":5126,
			"count":318,
			"type":"VEC3"
		},
		{
			"bufferView":6,
			"componentType":5126,
			"count":318,
			"type":"VEC2"
		},
		{
			"bufferView":7,
			"componentType":5123,
			"count":624,
			"type":"SCALAR"
		},
		{
			"bufferView":8,
			"componentType":5126,
			"count":298,
			"max":[
				0.9871664047241211,
				0.0008164495229721069,
				1.1541533470153809
			],
			"min":[
				-0.9507049322128296,
				-5.806270599365234,
				-1.3382036685943604
			],
			"type":"VEC3"
		},
		{
			"bufferView":9,
			"componentType":5126,
			"count":298,
			"type":"VEC3"
		},
		{
			"bufferView":10,
			"componentType":5126,
			"count":298,
			"type":"VEC2"
		},
		{
			"bufferView":11,
			"componentType":5123,
			"count":1788,
			"type":"SCALAR"
		},
		{
			"bufferView":12,
			"componentType":5126,
			"count":453,
			"max":[
				0.950938880443573,
				0.018100637942552567,
				1.329394817352295
			],
			"min":[
				-0.99134761095047,
				-5.810176372528076,
				-1.803222417831421
			],
			"type":"VEC3"
		},
		{
			"bufferView":13,
			"componentType":5126,
			"count":453,
			"type":"VEC3"
		},
		{
			"bufferView":14,
			"componentType":5126,
			"count":453,
			"type":"VEC2"
		},
		{
			"bufferView":15,
			"componentType":5123,
			"count":2655,
			"type":"SCALAR"
		},
		{
			"bufferView":16,
			"componentType":5126,
			"count":98,
			"max":[
				1.2615633010864258,
				-0.0040938942693173885,
				0.9966822266578674
			],
			"min":[
				-2.042790651321411,
				-0.024293148890137672,
				-0.9965874552726746
			],
			"type":"VEC3"
		},
		{
			"bufferView":17,
			"componentType":5126,
			"count":98,
			"type":"VEC3"
		},
		{
			"bufferView":18,
			"componentType":5126,
			"count":98,
			"type":"VEC2"
		},
		{
			"bufferView":19,
			"componentType":5123,
			"count":576,
			"type":"SCALAR"
		},
		{
			"bufferView":20,
			"componentType":5126,
			"count":384,
			"max":[
				10.567119598388672,
				5.15452766418457,
				1.0699656009674072
			],
			"min":[
				-1.0903100967407227,
				-5.090368747711182,
				-4.290208339691162
			],
			"type":"VEC3"
		},
		{
			"bufferView":21,
			"componentType":5126,
			"count":384,
			"type":"VEC3"
		},
		{
			"bufferView":22,
			"componentType":5126,
			"count":384,
			"type":"VEC2"
		},
		{
			"bufferView":23,
			"componentType":5123,
			"count":2280,
			"type":"SCALAR"
		}
	],
	"bufferViews":[
		{
			"buffer":0,
			"byteLength":4176,
			"byteOffset":0,
			"target":34962
		},
		{
			"buffer":0,
			"byteLength":4176,
			"byteOffset":4176,
			"target":34962
		},
		{
			"buffer":0,
			"byteLength":2784,
			"byteOffset":8352,
			"target":34962
		},
		{
			"buffer":0,
			"byteLength":1368,
			"byteOffset":11136,
			"target":34963
		},
		{
			"buffer":0,
			"byteLength":3816,
			"byteOffset":12504,
			"target":34962
		},
		{
			"buffer":0,
			"byteLength":3816,
			"byteOffset":16320,
			"target":34962
		},
		{
			"buffer":0,
			"byteLength":2544,
			"byteOffset":20136,
			"target":34962
		},
		{
			"buffer":0,
			"byteLength":1248,
			"byteOffset":22680,
			"target":34963
		},
		{
			"buffer":0,
			"byteLength":3576,
			"byteOffset":23928,
			"target":34962
		},
		{
			"buffer":0,
			"byteLength":3576,
			"byteOffset":27504,
			"target":34962
		},
		{
			"buffer":0,
			"byteLength":2384,
			"byteOffset":31080,
			"target":34962
		},
		{
			"buffer":0,
			"byteLength":3576,
			"byteOffset":33464,
			"target":34963
		},
		{
			"buffer":0,
			"byteLength":5436,
			"byteOffset":37040,
			"target":34962
		},
		{
			"buffer":0,
			"byteLength":5436,
			"byteOffset":42476,
			"target":34962
		},
		{
			"buffer":0,
			"byteLength":3624,
			"byteOffset":47912,
			"target":34962
		},
		{
			"buffer":0,
			"byteLength":5310,
			"byteOffset":51536,
			"target":34963
		},
		{
			"buffer":0,
			"byteLength":1176,
			"byteOffset":56848,
			"target":34962
		},
		{
			"buffer":0,
			"byteLength":1176,
			"byteOffset":58024,
			"target":34962
		},
		{
			"buffer":0,
			"byteLength":784,
			"byteOffset":59200,
			"target":34962
		},
		{
			"buffer":0,
			"byteLength":1152,
			"byteOffset":59984,
			"target":34963
		},
		{
			"buffer":0,
			"byteLength":4608,
			"byteOffset":61136,
			"target":34962
		},
		{
			"buffer":0,
			"byteLength":4608,
			"byteOffset":65744,
			"target":34962
		},
		{
			"buffer":0,
			"byteLength":3072,
			"byteOffset":70352,
			"target":34962
		},
		{
			"buffer":0,
			"byteLength":4560,
			"byteOffset":73424,
			"target":34963
		}
	],
	"buffers":[
		{
			"byteLength":77984,
			"uri":"data:application/octet-stream;base64,"
		}
	]
}
